<?xml version="1.0" encoding="UTF-8"?>
<svg xmlns="http://www.w3.org/2000/svg" xmlns:xlink="http://www.w3.org/1999/xlink" width="16px" height="12px" viewBox="0 0 16 12" version="1.1">
<g id="surface1">
<path style=" stroke:none;fill-rule:nonzero;fill:rgb(37, 99, 235);fill-opacity:1;" d="M 5.113281 1.832031 L 4.265625 3.578125 L 6.234375 7.683594 L 8.191406 11.777344 L 9.867188 11.777344 C 10.78125 11.777344 11.535156 11.761719 11.535156 11.734375 C 11.535156 11.707031 10.28125 9.074219 8.746094 5.878906 L 5.960938 0.0820312 Z M 5.113281 1.832031 "/>
<path style=" stroke:none;fill-rule:nonzero;fill:rgb(37, 99, 235);fill-opacity:1;" d="M 9.351562 1.8125 C 8.925781 2.714844 8.574219 3.515625 8.574219 3.597656 C 8.566406 3.671875 9.441406 5.550781 10.5 7.757812 L 12.433594 11.769531 L 14.085938 11.777344 C 14.992188 11.777344 15.734375 11.761719 15.734375 11.734375 C 15.734375 11.660156 10.207031 0.183594 10.171875 0.183594 C 10.152344 0.183594 9.785156 0.921875 9.351562 1.8125 Z M 9.351562 1.8125 "/>
<path style=" stroke:none;fill-rule:nonzero;fill:rgb(37, 99, 235);fill-opacity:1;" d="M 2.078125 8.152344 L 0.332031 11.777344 L 3.839844 11.777344 C 6.621094 11.777344 7.332031 11.75 7.292969 11.667969 C 7.191406 11.429688 3.914062 4.648438 3.875 4.582031 C 3.851562 4.554688 3.046875 6.15625 2.078125 8.152344 Z M 2.078125 8.152344 "/>
</g>
</svg>
