<svg version="1.0" xmlns="http://www.w3.org/2000/svg"
 width="240.000000pt" height="130.000000pt" viewBox="0 0 240.000000 130.000000"
 preserveAspectRatio="xMidYMid meet">

<g transform="translate(0.000000,130.000000) scale(0.100000,-0.100000)"
fill="#ffffff" stroke="none">
<path d="M767 1101 l-127 -190 295 -446 294 -445 251 0 c137 0 250 2 250 5 0
3 -188 289 -418 636 l-418 630 -127 -190z"/>
<path d="M1403 1103 c-64 -98 -117 -185 -117 -194 -1 -8 130 -212 289 -452
l290 -436 248 -1 c136 0 247 2 247 5 0 8 -829 1255 -834 1255 -3 0 -58 -80
-123 -177z"/>
<path d="M312 414 l-262 -394 526 0 c417 0 524 3 518 12 -15 26 -507 763 -513
770 -3 3 -124 -171 -269 -388z"/>
</g>
</svg>
